solid OpenSCAD_Model
  facet normal 0 0 -1
    outer loop
      vertex 1 0 0
      vertex 3.25 0 0
      vertex 3.25 -1 0
    endloop
  endfacet
  facet normal -0 0 -1
    outer loop
      vertex 1 0 0
      vertex -3.25 -1 0
      vertex -1 0 0
    endloop
  endfacet
  facet normal 0 0 -1
    outer loop
      vertex 1 0 0
      vertex -3.25 2.25 0
      vertex 3.25 2.25 0
    endloop
  endfacet
  facet normal 0 0 -1
    outer loop
      vertex 1 0 0
      vertex -1 0 0
      vertex -3.25 2.25 0
    endloop
  endfacet
  facet normal 0 0 -1
    outer loop
      vertex -3.25 -1 0
      vertex -3.25 0 0
      vertex -1 0 0
    endloop
  endfacet
  facet normal 0 0 -1
    outer loop
      vertex 3.25 -1 0
      vertex -3.25 -1 0
      vertex 1 0 0
    endloop
  endfacet
  facet normal 0 -0 1
    outer loop
      vertex 3.25 -1 8.5
      vertex 3.25 0 8.5
      vertex 1 0 8.5
    endloop
  endfacet
  facet normal -0 0 1
    outer loop
      vertex -1 0 8.5
      vertex -3.25 -1 8.5
      vertex 1 0 8.5
    endloop
  endfacet
  facet normal 0 0 1
    outer loop
      vertex 3.25 2.25 8.5
      vertex -3.25 2.25 8.5
      vertex 1 0 8.5
    endloop
  endfacet
  facet normal 0 0 1
    outer loop
      vertex -3.25 2.25 8.5
      vertex -1 0 8.5
      vertex 1 0 8.5
    endloop
  endfacet
  facet normal 0 0 1
    outer loop
      vertex -1 0 8.5
      vertex -3.25 0 8.5
      vertex -3.25 -1 8.5
    endloop
  endfacet
  facet normal 0 0 1
    outer loop
      vertex 1 0 8.5
      vertex -3.25 -1 8.5
      vertex 3.25 -1 8.5
    endloop
  endfacet
  facet normal 0 1 0
    outer loop
      vertex 1 0 0
      vertex 3.25 0 8.5
      vertex 3.25 0 0
    endloop
  endfacet
  facet normal 0 1 0
    outer loop
      vertex 1 0 0
      vertex 1 0 8.5
      vertex 3.25 0 8.5
    endloop
  endfacet
  facet normal 0.707107 -0.707107 0
    outer loop
      vertex 3.25 2.25 0
      vertex 1 0 8.5
      vertex 1 0 0
    endloop
  endfacet
  facet normal 0.707107 -0.707107 0
    outer loop
      vertex 3.25 2.25 0
      vertex 3.25 2.25 8.5
      vertex 1 0 8.5
    endloop
  endfacet
  facet normal 0 1 0
    outer loop
      vertex -3.25 2.25 0
      vertex 3.25 2.25 8.5
      vertex 3.25 2.25 0
    endloop
  endfacet
  facet normal 0 1 0
    outer loop
      vertex -3.25 2.25 0
      vertex -3.25 2.25 8.5
      vertex 3.25 2.25 8.5
    endloop
  endfacet
  facet normal -0.707107 -0.707107 0
    outer loop
      vertex -1 0 0
      vertex -3.25 2.25 8.5
      vertex -3.25 2.25 0
    endloop
  endfacet
  facet normal -0.707107 -0.707107 0
    outer loop
      vertex -1 0 0
      vertex -1 0 8.5
      vertex -3.25 2.25 8.5
    endloop
  endfacet
  facet normal 0 1 0
    outer loop
      vertex -3.25 0 0
      vertex -1 0 8.5
      vertex -1 0 0
    endloop
  endfacet
  facet normal 0 1 0
    outer loop
      vertex -3.25 0 0
      vertex -3.25 0 8.5
      vertex -1 0 8.5
    endloop
  endfacet
  facet normal -1 0 0
    outer loop
      vertex -3.25 -1 0
      vertex -3.25 0 8.5
      vertex -3.25 0 0
    endloop
  endfacet
  facet normal -1 0 0
    outer loop
      vertex -3.25 -1 0
      vertex -3.25 -1 8.5
      vertex -3.25 0 8.5
    endloop
  endfacet
  facet normal 0 -1 0
    outer loop
      vertex 3.25 -1 0
      vertex -3.25 -1 8.5
      vertex -3.25 -1 0
    endloop
  endfacet
  facet normal 0 -1 0
    outer loop
      vertex 3.25 -1 0
      vertex 3.25 -1 8.5
      vertex -3.25 -1 8.5
    endloop
  endfacet
  facet normal 1 0 0
    outer loop
      vertex 3.25 0 0
      vertex 3.25 -1 8.5
      vertex 3.25 -1 0
    endloop
  endfacet
  facet normal 1 0 -0
    outer loop
      vertex 3.25 0 0
      vertex 3.25 0 8.5
      vertex 3.25 -1 8.5
    endloop
  endfacet
endsolid OpenSCAD_Model
