solid OpenSCAD_Model
  facet normal 0 0 -1
    outer loop
      vertex 0.875 0 0
      vertex 2.625 0 0
      vertex 2.625 -0.875 0
    endloop
  endfacet
  facet normal -0 0 -1
    outer loop
      vertex 0.875 0 0
      vertex -2.625 -0.875 0
      vertex -0.875 0 0
    endloop
  endfacet
  facet normal 0 0 -1
    outer loop
      vertex 0.875 0 0
      vertex -2.625 1.75 0
      vertex 2.625 1.75 0
    endloop
  endfacet
  facet normal 0 0 -1
    outer loop
      vertex 0.875 0 0
      vertex -0.875 0 0
      vertex -2.625 1.75 0
    endloop
  endfacet
  facet normal 0 0 -1
    outer loop
      vertex -2.625 -0.875 0
      vertex -2.625 0 0
      vertex -0.875 0 0
    endloop
  endfacet
  facet normal 0 0 -1
    outer loop
      vertex 2.625 -0.875 0
      vertex -2.625 -0.875 0
      vertex 0.875 0 0
    endloop
  endfacet
  facet normal 0 -0 1
    outer loop
      vertex 2.625 -0.875 7
      vertex 2.625 0 7
      vertex 0.875 0 7
    endloop
  endfacet
  facet normal -0 0 1
    outer loop
      vertex -0.875 0 7
      vertex -2.625 -0.875 7
      vertex 0.875 0 7
    endloop
  endfacet
  facet normal 0 0 1
    outer loop
      vertex 2.625 1.75 7
      vertex -2.625 1.75 7
      vertex 0.875 0 7
    endloop
  endfacet
  facet normal 0 0 1
    outer loop
      vertex -2.625 1.75 7
      vertex -0.875 0 7
      vertex 0.875 0 7
    endloop
  endfacet
  facet normal 0 0 1
    outer loop
      vertex -0.875 0 7
      vertex -2.625 0 7
      vertex -2.625 -0.875 7
    endloop
  endfacet
  facet normal 0 0 1
    outer loop
      vertex 0.875 0 7
      vertex -2.625 -0.875 7
      vertex 2.625 -0.875 7
    endloop
  endfacet
  facet normal 0 1 0
    outer loop
      vertex 0.875 0 0
      vertex 2.625 0 7
      vertex 2.625 0 0
    endloop
  endfacet
  facet normal 0 1 0
    outer loop
      vertex 0.875 0 0
      vertex 0.875 0 7
      vertex 2.625 0 7
    endloop
  endfacet
  facet normal 0.707107 -0.707107 0
    outer loop
      vertex 2.625 1.75 0
      vertex 0.875 0 7
      vertex 0.875 0 0
    endloop
  endfacet
  facet normal 0.707107 -0.707107 0
    outer loop
      vertex 2.625 1.75 0
      vertex 2.625 1.75 7
      vertex 0.875 0 7
    endloop
  endfacet
  facet normal 0 1 0
    outer loop
      vertex -2.625 1.75 0
      vertex 2.625 1.75 7
      vertex 2.625 1.75 0
    endloop
  endfacet
  facet normal 0 1 0
    outer loop
      vertex -2.625 1.75 0
      vertex -2.625 1.75 7
      vertex 2.625 1.75 7
    endloop
  endfacet
  facet normal -0.707107 -0.707107 0
    outer loop
      vertex -0.875 0 0
      vertex -2.625 1.75 7
      vertex -2.625 1.75 0
    endloop
  endfacet
  facet normal -0.707107 -0.707107 0
    outer loop
      vertex -0.875 0 0
      vertex -0.875 0 7
      vertex -2.625 1.75 7
    endloop
  endfacet
  facet normal 0 1 0
    outer loop
      vertex -2.625 0 0
      vertex -0.875 0 7
      vertex -0.875 0 0
    endloop
  endfacet
  facet normal 0 1 0
    outer loop
      vertex -2.625 0 0
      vertex -2.625 0 7
      vertex -0.875 0 7
    endloop
  endfacet
  facet normal -1 0 0
    outer loop
      vertex -2.625 -0.875 0
      vertex -2.625 0 7
      vertex -2.625 0 0
    endloop
  endfacet
  facet normal -1 0 0
    outer loop
      vertex -2.625 -0.875 0
      vertex -2.625 -0.875 7
      vertex -2.625 0 7
    endloop
  endfacet
  facet normal 0 -1 0
    outer loop
      vertex 2.625 -0.875 0
      vertex -2.625 -0.875 7
      vertex -2.625 -0.875 0
    endloop
  endfacet
  facet normal 0 -1 0
    outer loop
      vertex 2.625 -0.875 0
      vertex 2.625 -0.875 7
      vertex -2.625 -0.875 7
    endloop
  endfacet
  facet normal 1 0 0
    outer loop
      vertex 2.625 0 0
      vertex 2.625 -0.875 7
      vertex 2.625 -0.875 0
    endloop
  endfacet
  facet normal 1 0 -0
    outer loop
      vertex 2.625 0 0
      vertex 2.625 0 7
      vertex 2.625 -0.875 7
    endloop
  endfacet
endsolid OpenSCAD_Model
