solid OpenSCAD_Model
  facet normal 0 0 -1
    outer loop
      vertex 1.375 0 0
      vertex 4 0 0
      vertex 4 -1.375 0
    endloop
  endfacet
  facet normal 0 0 -1
    outer loop
      vertex 1.375 0 0
      vertex -1.375 0 0
      vertex -4 2.625 0
    endloop
  endfacet
  facet normal 0 0 -1
    outer loop
      vertex 1.375 0 0
      vertex -4 2.625 0
      vertex 4 2.625 0
    endloop
  endfacet
  facet normal 0 0 -1
    outer loop
      vertex -4 -1.375 0
      vertex -1.375 0 0
      vertex 1.375 0 0
    endloop
  endfacet
  facet normal 0 0 -1
    outer loop
      vertex -4 -1.375 0
      vertex -4 0 0
      vertex -1.375 0 0
    endloop
  endfacet
  facet normal 0 0 -1
    outer loop
      vertex 4 -1.375 0
      vertex -4 -1.375 0
      vertex 1.375 0 0
    endloop
  endfacet
  facet normal 0 -0 1
    outer loop
      vertex 4 -1.375 10
      vertex 4 0 10
      vertex 1.375 0 10
    endloop
  endfacet
  facet normal 0 0 1
    outer loop
      vertex -4 2.625 10
      vertex -1.375 0 10
      vertex 1.375 0 10
    endloop
  endfacet
  facet normal 0 0 1
    outer loop
      vertex 4 2.625 10
      vertex -4 2.625 10
      vertex 1.375 0 10
    endloop
  endfacet
  facet normal 0 0 1
    outer loop
      vertex 1.375 0 10
      vertex -1.375 0 10
      vertex -4 -1.375 10
    endloop
  endfacet
  facet normal 0 0 1
    outer loop
      vertex -1.375 0 10
      vertex -4 0 10
      vertex -4 -1.375 10
    endloop
  endfacet
  facet normal 0 0 1
    outer loop
      vertex 1.375 0 10
      vertex -4 -1.375 10
      vertex 4 -1.375 10
    endloop
  endfacet
  facet normal 0 1 0
    outer loop
      vertex 1.375 0 0
      vertex 4 0 10
      vertex 4 0 0
    endloop
  endfacet
  facet normal 0 1 0
    outer loop
      vertex 1.375 0 0
      vertex 1.375 0 10
      vertex 4 0 10
    endloop
  endfacet
  facet normal 0.707107 -0.707107 0
    outer loop
      vertex 4 2.625 0
      vertex 1.375 0 10
      vertex 1.375 0 0
    endloop
  endfacet
  facet normal 0.707107 -0.707107 0
    outer loop
      vertex 4 2.625 0
      vertex 4 2.625 10
      vertex 1.375 0 10
    endloop
  endfacet
  facet normal 0 1 0
    outer loop
      vertex -4 2.625 0
      vertex 4 2.625 10
      vertex 4 2.625 0
    endloop
  endfacet
  facet normal 0 1 0
    outer loop
      vertex -4 2.625 0
      vertex -4 2.625 10
      vertex 4 2.625 10
    endloop
  endfacet
  facet normal -0.707107 -0.707107 0
    outer loop
      vertex -1.375 0 0
      vertex -4 2.625 10
      vertex -4 2.625 0
    endloop
  endfacet
  facet normal -0.707107 -0.707107 0
    outer loop
      vertex -1.375 0 0
      vertex -1.375 0 10
      vertex -4 2.625 10
    endloop
  endfacet
  facet normal 0 1 0
    outer loop
      vertex -4 0 0
      vertex -1.375 0 10
      vertex -1.375 0 0
    endloop
  endfacet
  facet normal 0 1 0
    outer loop
      vertex -4 0 0
      vertex -4 0 10
      vertex -1.375 0 10
    endloop
  endfacet
  facet normal -1 0 0
    outer loop
      vertex -4 -1.375 0
      vertex -4 0 10
      vertex -4 0 0
    endloop
  endfacet
  facet normal -1 0 0
    outer loop
      vertex -4 -1.375 0
      vertex -4 -1.375 10
      vertex -4 0 10
    endloop
  endfacet
  facet normal 0 -1 0
    outer loop
      vertex 4 -1.375 0
      vertex -4 -1.375 10
      vertex -4 -1.375 0
    endloop
  endfacet
  facet normal 0 -1 0
    outer loop
      vertex 4 -1.375 0
      vertex 4 -1.375 10
      vertex -4 -1.375 10
    endloop
  endfacet
  facet normal 1 0 0
    outer loop
      vertex 4 0 0
      vertex 4 -1.375 10
      vertex 4 -1.375 0
    endloop
  endfacet
  facet normal 1 0 -0
    outer loop
      vertex 4 0 0
      vertex 4 0 10
      vertex 4 -1.375 10
    endloop
  endfacet
endsolid OpenSCAD_Model
